<?xml version="1.0" standalone="no"?>
<!DOCTYPE svg PUBLIC "-//W3C//DTD SVG 20010904//EN"
 "http://www.w3.org/TR/2001/REC-SVG-20010904/DTD/svg10.dtd">
<svg version="1.0" xmlns="http://www.w3.org/2000/svg"
 width="1017.000000pt" height="1055.000000pt" viewBox="0 0 1017.000000 1055.000000"
 preserveAspectRatio="xMidYMid meet">

<g transform="translate(0.000000,1055.000000) scale(0.100000,-0.100000)"
fill="#000000" stroke="none">
<path d="M2453 10519 c-180 -26 -380 -102 -507 -193 -202 -145 -340 -393 -363
-654 -3 -40 -10 -75 -14 -78 -4 -2 -54 5 -111 18 -140 30 -448 33 -578 5 -337
-73 -594 -277 -746 -592 -125 -259 -148 -546 -68 -824 97 -335 334 -631 689
-864 347 -227 759 -372 1320 -464 37 -6 51 -13 53 -27 4 -18 -6 -19 -315 -14
-314 6 -353 3 -353 -26 0 -35 27 -38 347 -44 l318 -7 6 -185 c4 -102 10 -219
14 -260 l7 -76 -218 -28 c-120 -15 -224 -32 -231 -38 -19 -15 -16 -46 5 -52 9
-3 103 5 207 19 262 34 241 37 249 -32 34 -304 98 -722 159 -1038 18 -93 21
-129 13 -160 -5 -22 -9 -105 -9 -185 0 -161 16 -278 138 -985 l66 -377 -40
-43 c-89 -96 -141 -252 -141 -419 0 -174 51 -317 153 -431 56 -63 166 -140
239 -168 39 -15 51 -27 84 -85 57 -98 182 -220 271 -264 99 -50 165 -62 298
-55 261 13 468 119 569 291 22 37 46 66 55 66 9 1 151 13 316 29 165 16 302
27 304 25 2 -2 -25 -211 -61 -466 l-64 -463 -54 -7 c-30 -4 -106 -12 -168 -18
-515 -49 -848 -324 -819 -675 22 -253 217 -462 531 -570 189 -64 496 -103 726
-91 423 23 780 132 1079 330 l95 63 75 -34 c863 -394 1718 -467 2184 -186 95
58 203 167 241 246 39 78 52 185 38 290 -46 329 -360 527 -957 603 -71 9 -131
17 -133 19 -6 5 -236 1185 -231 1189 2 2 252 27 554 55 581 54 680 69 847 127
266 92 445 236 543 439 96 196 96 309 7 905 -95 631 -286 1882 -357 2334 -51
327 -62 412 -52 425 7 9 145 176 308 371 719 863 916 1120 1027 1338 113 222
155 377 155 572 0 144 -21 236 -77 354 -149 310 -414 426 -969 426 -284 0
-510 -21 -1022 -96 -360 -52 -512 -96 -675 -194 -140 -84 -225 -174 -291 -305
-132 -267 -67 -651 148 -870 180 -183 448 -230 781 -138 51 14 95 23 98 20 4
-3 -71 -107 -166 -230 l-172 -225 -132 5 c-72 3 -134 8 -137 12 -3 3 -18 39
-33 79 -130 339 -386 656 -701 867 -522 349 -1288 491 -2103 390 -169 -21
-161 -23 -207 42 -125 175 -476 566 -674 751 -416 388 -560 473 -891 527 -104
16 -372 19 -477 4z m578 -62 c135 -32 246 -77 324 -129 209 -143 549 -459 818
-762 126 -142 321 -385 314 -392 -3 -4 -69 -19 -146 -35 -475 -95 -906 -266
-1260 -501 -89 -59 -106 -67 -113 -53 -5 9 -44 59 -87 113 -312 391 -713 685
-1146 838 l-120 42 3 53 c12 196 91 394 215 541 118 140 354 262 577 298 41 6
82 13 90 15 8 2 107 2 220 0 176 -3 220 -7 311 -28z m6403 -633 c262 -36 441
-130 548 -287 92 -136 132 -266 131 -437 0 -180 -39 -333 -134 -526 -54 -111
-183 -312 -204 -321 -8 -3 -185 45 -392 105 -348 102 -382 110 -422 101 -108
-24 -434 -80 -576 -99 -220 -30 -329 -30 -388 -1 -122 59 -177 201 -177 458 0
78 6 149 14 181 31 113 104 165 237 166 66 1 81 -2 117 -27 73 -48 108 -149
119 -339 5 -106 8 -118 25 -118 16 0 18 9 18 78 -1 218 -52 363 -149 420 -40
24 -57 27 -131 27 -74 0 -92 -4 -145 -30 -112 -56 -145 -137 -145 -357 0 -267
53 -412 178 -486 l47 -27 -55 -13 c-92 -22 -274 -26 -360 -8 -178 38 -325 152
-409 318 -25 48 -41 91 -38 95 6 5 449 82 480 83 9 0 9 12 -1 28 -7 10 -59 5
-253 -27 -134 -22 -245 -38 -246 -37 -2 2 -10 38 -18 80 -28 144 -14 299 35
414 l22 51 46 -5 c70 -6 384 -24 431 -24 33 0 41 3 41 19 0 20 -16 22 -325 37
-177 9 -176 8 -127 70 105 134 284 235 525 299 99 26 526 91 827 125 346 40
631 44 854 14z m-8059 -239 c447 -68 886 -305 1265 -684 128 -129 300 -330
300 -353 0 -3 -44 -41 -97 -85 -244 -199 -397 -382 -511 -610 -52 -104 -124
-304 -137 -380 -4 -24 -11 -45 -15 -48 -7 -5 -136 42 -402 144 -21 8 -31 7
-43 -5 -36 -36 -17 -48 216 -138 182 -70 214 -85 212 -102 -1 -10 -9 -77 -18
-149 -8 -71 -15 -160 -15 -197 0 -81 14 -78 -184 -43 -999 180 -1672 657
-1853 1315 -24 87 -27 111 -27 280 0 158 4 196 22 262 97 353 319 614 622 733
60 24 205 61 265 68 81 10 310 5 400 -8z m4070 -405 c865 -57 1485 -368 1855
-930 66 -101 153 -273 190 -377 l23 -63 112 0 c446 0 782 -218 904 -585 22
-68 52 -232 121 -670 110 -703 258 -1669 256 -1672 0 -1 -532 -6 -1181 -12
-2556 -23 -3765 -32 -3868 -29 l-108 3 -23 65 c-81 232 -219 384 -414 455 -67
24 -95 28 -222 32 -214 7 -374 -30 -509 -117 -78 -51 -141 -116 -179 -188 -20
-36 -33 -51 -36 -42 -2 8 -16 80 -30 160 -89 509 -150 960 -130 960 5 0 77 9
159 20 159 21 185 33 164 71 -12 23 -10 23 -189 0 -80 -11 -146 -18 -148 -17
-4 5 -21 266 -25 389 l-3 117 122 0 c99 0 124 3 135 16 22 27 -1 49 -57 51
-27 2 -82 5 -123 9 l-74 6 6 156 c6 140 18 257 32 318 5 21 9 20 146 -33 78
-30 148 -52 155 -49 25 10 29 38 8 55 -11 9 -78 38 -150 65 -71 27 -132 51
-136 55 -11 9 36 187 77 292 102 264 257 478 498 685 251 216 521 380 847 514
531 218 1213 328 1795 290z m3980 -875 c165 -48 304 -91 309 -96 10 -9 -52
-91 -339 -443 -115 -142 -217 -267 -225 -277 -14 -18 -27 -8 -223 195 -179
185 -207 218 -202 239 8 29 -16 51 -43 43 -15 -5 -54 29 -186 165 -91 94 -164
174 -161 179 2 4 30 10 62 14 77 9 384 61 498 84 86 18 93 18 150 1 33 -9 195
-56 360 -104z m-1015 -122 c69 -71 152 -156 185 -191 l60 -63 -55 -52 c-31
-29 -106 -98 -168 -155 l-111 -103 -54 40 c-29 22 -92 60 -140 83 l-87 44 141
183 c143 186 161 222 113 229 -16 2 -51 -37 -170 -192 -82 -108 -156 -196
-164 -196 -8 0 -36 6 -62 13 l-47 12 177 232 c165 216 179 232 212 236 19 2
37 4 40 5 3 1 62 -55 130 -125z m708 -740 c2 -7 -97 -134 -220 -281 -123 -146
-230 -275 -239 -286 -15 -18 -17 -11 -37 115 -12 74 -32 171 -45 216 l-24 83
76 29 c42 16 135 50 206 76 72 26 138 55 148 64 18 18 15 46 -7 54 -7 3 -111
-32 -232 -77 l-219 -82 -34 56 c-18 30 -53 79 -78 109 l-44 55 23 22 c13 12
88 81 168 153 l145 131 205 -212 c113 -116 206 -217 208 -225z m-5881 -2098
c107 -25 190 -72 274 -155 98 -96 166 -228 207 -397 22 -94 30 -113 46 -113
19 0 18 17 -1 98 l-5 22 384 0 383 0 500 -330 c275 -182 506 -329 513 -328 6
2 154 112 326 246 173 133 317 242 319 242 3 0 17 -20 31 -43 27 -48 73 -87
132 -114 22 -9 40 -18 42 -19 1 0 -7 -43 -17 -95 -85 -405 -35 -719 122 -778
43 -17 117 -13 163 8 83 38 124 127 124 270 0 109 -26 226 -91 411 -68 198
-67 183 -26 202 81 39 140 114 153 197 4 23 8 41 11 41 2 0 159 -110 348 -245
l344 -246 455 311 455 310 243 -2 243 -3 17 -110 c71 -450 168 -1135 168
-1188 l0 -65 -62 -7 c-35 -3 -301 -23 -593 -45 -291 -22 -978 -73 -1525 -115
-2467 -186 -2910 -218 -2914 -214 -2 2 -36 231 -75 509 -39 278 -73 515 -76
528 -3 14 -13 22 -25 22 -17 0 -19 -5 -14 -25 3 -14 4 -25 2 -25 -2 0 -303
-47 -668 -105 -365 -58 -665 -103 -668 -100 -6 6 -17 65 -69 385 -41 250 -47
304 -47 440 0 120 4 170 18 220 62 225 233 364 503 410 83 13 283 11 350 -5z
m5103 -512 c-1 -10 -806 -558 -820 -558 -14 0 -771 538 -765 543 2 2 352 7
777 11 425 4 781 8 791 9 9 1 17 -1 17 -5z m-1990 -17 c0 -9 -813 -631 -822
-629 -23 8 -918 607 -913 612 4 3 313 9 688 12 375 3 764 6 865 7 100 1 182 0
182 -2z m-2481 -1066 c24 -171 42 -313 39 -316 -9 -8 -1322 -81 -1331 -73 -12
9 -93 477 -85 485 6 6 1268 211 1313 213 19 1 23 -17 64 -309z m55 -392 c3
-18 24 -166 47 -328 65 -456 59 -632 -27 -802 -14 -28 -47 -73 -72 -101 -51
-54 -155 -127 -182 -127 -14 0 -28 49 -81 275 -54 232 -66 275 -81 275 -11 0
-18 -7 -18 -17 0 -10 27 -133 60 -272 33 -140 60 -263 60 -272 0 -22 -106 -49
-221 -56 -79 -5 -87 -4 -93 13 -3 11 -26 111 -51 224 -64 285 -62 280 -85 280
-11 0 -20 -2 -20 -4 0 -2 25 -112 55 -244 51 -223 60 -272 52 -272 -2 0 -28 7
-58 16 -87 26 -144 60 -219 130 -113 107 -195 247 -255 435 -28 89 -159 788
-149 798 4 5 1143 75 1295 80 34 1 37 -2 43 -31z m-1376 -105 c20 -95 46 -262
41 -266 -2 -2 -48 -7 -102 -10 l-99 -7 7 43 c12 73 53 179 91 234 20 29 40 53
44 53 5 0 13 -21 18 -47z m4542 -21 c0 -100 -78 -200 -189 -244 -49 -19 -81
-22 -264 -26 -182 -4 -214 -2 -254 13 -85 33 -152 112 -168 198 -6 32 -5 37
11 38 22 0 845 66 857 68 4 0 7 -21 7 -47z m169 -1647 c26 -132 44 -244 40
-249 -4 -5 -315 -167 -691 -361 l-683 -353 -6 86 c-4 48 -8 219 -10 381 l-4
295 650 232 c394 140 651 227 653 220 2 -6 24 -119 51 -251z m-2014 23 c325
-121 594 -223 598 -228 6 -6 30 -750 24 -756 -5 -5 -1293 727 -1301 739 -5 7
2 90 18 202 15 105 29 209 33 233 4 35 9 42 22 37 9 -4 282 -106 606 -227z
m-52 -659 l674 -380 6 -62 c6 -61 5 -63 -26 -89 -51 -43 -224 -143 -323 -186
-454 -199 -1063 -236 -1498 -91 -49 16 -95 33 -104 38 -10 6 32 34 154 101
355 195 365 201 361 218 -2 10 -9 16 -16 14 -8 -2 -137 -71 -288 -153 l-274
-151 -43 26 c-75 44 -154 115 -200 179 -42 59 -91 155 -83 163 2 2 132 67 290
144 218 107 285 144 281 155 -4 8 -12 15 -20 15 -8 0 -136 -61 -285 -136 -149
-74 -274 -133 -277 -129 -3 3 -8 32 -10 63 -18 250 191 481 519 575 117 34
264 55 461 66 19 1 234 -116 701 -380z m2412 319 c300 -50 505 -132 647 -257
83 -72 143 -198 154 -321 7 -68 -11 -210 -26 -210 -5 0 -117 63 -250 140 -133
77 -246 140 -250 140 -14 0 -19 -28 -7 -38 7 -5 116 -69 242 -142 127 -73 234
-136 239 -141 13 -12 -65 -112 -125 -159 -56 -44 -158 -104 -208 -121 -31 -11
-41 -6 -284 140 -139 83 -258 151 -264 151 -6 0 -13 -6 -16 -14 -4 -10 65 -57
234 -157 131 -79 239 -147 239 -151 0 -8 -154 -44 -255 -59 -44 -7 -159 -12
-255 -12 -314 0 -612 55 -990 182 -148 50 -458 174 -497 199 -13 8 -21 117 -9
129 4 4 323 171 709 371 l702 363 75 -6 c41 -4 129 -15 195 -27z"/>
<path d="M5925 8848 c-46 -26 -348 -284 -358 -305 l-10 -22 -36 31 c-19 17
-74 49 -121 71 -138 64 -382 168 -419 179 -102 29 -178 -52 -120 -127 l22 -27
-41 21 c-49 25 -68 26 -76 6 -4 -11 12 -24 59 -47 65 -32 75 -45 75 -101 0
-26 -2 -27 -42 -25 -32 2 -43 -1 -46 -13 -2 -12 7 -18 35 -23 65 -12 71 -16
79 -49 11 -52 154 -448 181 -500 32 -65 100 -129 171 -163 47 -23 74 -29 152
-32 89 -4 98 -2 149 25 76 39 101 88 101 193 0 67 -8 104 -66 285 -36 114 -62
211 -57 216 21 20 45 -32 107 -226 36 -116 77 -232 91 -260 15 -31 20 -51 14
-54 -6 -2 -26 -17 -45 -33 -25 -23 -34 -38 -34 -62 0 -63 74 -104 205 -113
l82 -6 58 -216 c32 -119 60 -225 63 -235 5 -18 -2 -19 -214 -13 -303 9 -425
25 -789 108 -402 92 -478 102 -745 103 -260 0 -412 -18 -560 -69 -160 -55
-306 -176 -369 -308 -108 -226 -71 -532 93 -761 215 -301 761 -526 1526 -626
208 -28 665 -38 916 -21 663 46 1253 175 1631 356 357 171 545 369 619 650 27
104 25 361 -4 468 -80 294 -290 447 -613 447 -234 0 -486 -53 -849 -180 -267
-93 -345 -117 -459 -140 -150 -32 -129 -54 -199 207 -34 125 -59 229 -57 231
2 2 36 10 75 18 120 23 162 55 211 164 19 44 2 151 -56 335 -31 97 -69 211
-85 254 -16 44 -26 82 -23 85 4 3 19 6 35 6 22 0 28 5 28 21 0 20 -4 21 -46
16 -44 -5 -46 -4 -62 30 l-17 35 44 37 c38 32 41 38 27 50 -13 11 -21 8 -56
-20 -29 -24 -43 -30 -51 -22 -8 8 -7 18 5 34 24 35 20 67 -13 100 -32 31 -79
38 -116 17z m108 -200 c45 -60 83 -151 150 -353 79 -239 97 -308 97 -368 0
-51 -13 -66 -38 -44 -48 42 -201 64 -332 48 -81 -11 -86 -10 -102 9 -20 25
-43 86 -91 238 l-35 113 35 -22 c41 -25 100 -29 138 -9 56 30 92 164 80 292
-7 66 -7 67 27 97 18 17 36 31 40 31 4 0 18 -15 31 -32z m-1011 -62 c64 -29
77 -40 87 -68 20 -56 88 -163 136 -213 25 -25 66 -56 91 -67 44 -19 48 -19 90
-3 42 16 94 68 94 93 0 7 4 12 8 12 5 0 31 -69 58 -152 39 -123 49 -170 52
-238 3 -76 1 -89 -20 -120 -35 -52 -79 -70 -170 -70 -139 0 -254 67 -310 182
-31 63 -160 428 -182 513 -22 86 -31 165 -19 165 6 0 44 -15 85 -34z m935
-702 c-3 -3 -12 -4 -19 -1 -8 3 -5 6 6 6 11 1 17 -2 13 -5z m116 -1 c-7 -2
-19 -2 -25 0 -7 3 -2 5 12 5 14 0 19 -2 13 -5z m-176 -139 c-3 -3 -12 -4 -19
-1 -8 3 -5 6 6 6 11 1 17 -2 13 -5z m130 0 c-3 -3 -12 -4 -19 -1 -8 3 -5 6 6
6 11 1 17 -2 13 -5z m1742 -229 c151 -36 281 -140 346 -277 58 -122 70 -183
70 -358 0 -179 -18 -260 -85 -389 -147 -283 -495 -491 -1063 -636 -81 -21
-150 -35 -153 -32 -5 4 222 809 462 1644 14 49 17 52 52 56 101 10 311 6 371
-8z m-453 -22 c-3 -10 -113 -393 -244 -850 -131 -458 -240 -835 -243 -837 -8
-8 -436 -75 -574 -90 -308 -34 -685 -49 -685 -28 0 11 409 1473 415 1482 2 4
49 10 104 14 185 13 301 41 594 146 209 74 391 129 532 159 113 24 107 24 101
4z m-2667 -112 c29 -6 55 -12 57 -13 3 -4 -412 -1488 -419 -1494 -8 -8 -194
64 -314 121 -257 122 -406 254 -494 440 -120 250 -104 521 40 703 111 139 288
215 591 252 90 11 463 4 539 -9z m401 -81 c118 -27 267 -58 330 -69 129 -23
401 -51 497 -51 41 0 63 -4 63 -12 0 -6 -93 -343 -207 -750 l-207 -738 -96 0
c-104 0 -341 21 -505 46 -146 21 -240 40 -428 86 l-169 41 6 30 c8 42 407
1460 413 1471 7 11 53 3 303 -54z"/>
<path d="M7755 5748 c-906 -457 -1969 -580 -3080 -357 -208 41 -389 90 -603
161 -152 51 -185 59 -192 47 -5 -7 -6 -17 -2 -21 27 -26 493 -165 713 -213
1035 -222 2040 -146 2913 222 151 63 346 160 346 171 -1 29 -20 27 -95 -10z"/>
</g>
</svg>
